<?xml version="1.0" encoding="UTF-8"?>
<svg width="5px" height="9px" viewBox="0 0 5 9" version="1.1" xmlns="http://www.w3.org/2000/svg" xmlns:xlink="http://www.w3.org/1999/xlink">
    <!-- Generator: Sketch 52.6 (67491) - http://www.bohemiancoding.com/sketch -->
    <title>下一步@2x</title>
    <desc>Created with Sketch.</desc>
    <g id="Page-1" stroke="none" stroke-width="1" fill="none" fill-rule="evenodd">
        <g id="秒杀详情页-明日开始" transform="translate(-394.000000, -634.000000)" fill="#999DA2">
            <g id="分组" transform="translate(0.000000, 468.000000)">
                <g id="Group-15" transform="translate(0.000000, 150.000000)">
                    <g id="Group-12">
                        <g id="Group-9-Copy" transform="translate(15.000000, 14.000000)">
                            <g id="下一步" transform="translate(378.000000, 2.000000)">
                                <g id="箭头" transform="translate(1.000000, 0.000000)">
                                    <path d="M0.62510535,9 C0.481061878,9 0.336401072,8.95549943 0.218605522,8.8645845 C-0.0438508348,8.66242329 -0.0743628979,8.307283 0.150859356,8.07134251 L3.55177149,4.49981402 L0.150859367,0.928275246 C-0.0743628868,0.692334758 -0.0438393951,0.337184179 0.218605533,0.135033254 C0.480444555,-0.0663048299 0.875352308,-0.0396559328 1.09935134,0.19600676 L4.84939741,4.13367463 C5.05020086,4.34434496 5.05020086,4.65527278 4.84939741,4.86594312 L1.09935134,8.80361099 C0.976056984,8.93326458 0.800884114,9 0.62510535,9 Z" id="Shape" fill-rule="nonzero"></path>
                                </g>
                            </g>
                        </g>
                    </g>
                </g>
            </g>
        </g>
    </g>
</svg>